1000 '************************************
1010 '* Is it Domingo Today              *
1020 '*        (F1 Spirit 3D Special)    *
1030 '*       TINY-YAROU with NandemoMML *
1040 '************************************
1050 _MUSIC(1,0,1,1,1,1,1,1)
1060 PRINT"HIT ANY KEY":A$=INPUT$(1)
1070 RESTORE 2000
1080 READ A$,B$,C$,D$,E$,F$,G$
1090 IF A$="END" THEN RESTORE 2090:GOTO 1080
1100 PLAY#2,A$,B$,C$,D$,E$,F$,G$
1110 GOTO 1080
2000 '0
2010 DATA"t225l64r16.&r64@24o2v11g8.r4f+8.r4e32.r8&r32.a8.&a32.r4&r16
2020 DATA"t225l64r16.&r64@24o6v13g8.&g32r8.&r32f+8.&f+32r8.&r32e16r8&r32e4.&e16.&er16
2030 DATA"t225l64r16.&r64@0o2v11g8.r4f+8.r4e32.r8&r32.a8.&a32.r4&r16
2040 DATA"t225l64r8.&r32@24o6v3g8.&g32r8.&r32f+8.&f+32r8.&r32e16r8&r32e4.&er32.
2050 DATA"t225l64r8.&r32@24o6v3d8.&d32r8.&r32d8.&d32r8.&r32<b16r8&r32>c4.&cr32.
2060 DATA"t225l64r16.&r64@24o6v13d8.&d32r8.&r32d8.&d32r8.&r32<b16r8&r32>c4.&c16.&cr16
2070 DATA"t225v8r16.r64y56,20y55,48y54,0HB16.r64CS8.r32HB16.r64HS16.r64HB16.r64C16.r64HB16.r64HS16.r64B16.r64CS16.r64B16.r64S16.r64S16.r64B16.r64
2080 '1
2090 DATA"o2g16.r4&r16.g32r16&r64>d32r16&r64d32.r8&r32.g32.r8&r32.g32r16&r64d32r16&r64<g32.r8&r32.g32r16&r64>g32r16&r64
2100 DATA"o6<b8.&b32b4&b16.r4.&r32.b8r16.>c+16r32.d16r8&r32e16r8&r32
2110 DATA"o2g16.r4&r16.g32r16&r64>d32r16&r64d32.r8&r32.g32.r8&r32.g32r16&r64d32r16&r64<g32.r8&r32.g32r16&r64>g32r16&r64
2120 DATA"o6<v11f+16r8&r32f+32r16&r64<b32r8.>f+32r8.<b32r8.>f+32r8.<b32r16&r64>f+32r4.&r32
2130 DATA"o6<v11d16r8&r32d32r4&r32.d32r4.&r32d32r4&r32.d32r4.&r32
2140 DATA"o6r8.&r32@48<v7b2r4.&r16.&r64b16.&br16.&r64>c+16r32.d16r8&r32
2150 DATA"S16.r64HB16.r64H16.r64C16.r64B16.r64HS16.r64H16.r64C16.r64B16.r64H16.r64HB16.r64C16.r64B16.r64HS16.r64H16.r64C16.r64
2160 '2
2170 DATA"<g+32r16&r64a16&ar4a32r16&r64>e32r16&r64e32.r8&r32.a32.r8&r32.<a32r16&r64>g32r16&r64<a32r16&r64>f+32r16&r64<a32r16&r64>e32r16&r64
2180 DATA"<a2.&a16r2&r8.&r32a+16r8&r32
2190 DATA"<g+32r16&r64a16&ar4a32r16&r64>e32r16&r64e32.r8&r32.a32.r8&r32.<a32r16&r64>g32r16&r64<a32r16&r64>f+32r16&r64<a32r16&r64>e32r16&r64
2200 DATA"f+16r8&r32f+32r16&r64<a32r8.>f+32r8.<a32r8.>f+16r8&r32<a32r16&r64>f+32r8.f+32r8.
2210 DATA"c+16r8&r32c+32r4&r32.c+32r4.&r32c+16r4&r64c+32r8.c+32r8.
2220 DATA"e16r8&r32<a2&a8.&a32r2.&r16
2230 DATA"B16.r64HB16.r64H16.r64C16.r64B16.r64HS16.r64H16.r64C16.r64B16.r64H16.r64HB16.r64C16.r64B16.r64HS16.r64H16.r64C16.r64
2240 '3
2250 DATA"<g16.r4&r16.g32r16&r64>d32r16&r64d32.r8&r32.g32.r8&r32.g32r16&r64d32r16&r64<g32r16&r64g32r16&r64g32r16&r64>g32r16&r64
2260 DATA"b4.&b16r4&r16&r64b8r16.>d16r32.c+16r8&r32d16r8&r32e16r8&r32
2270 DATA"<g16.r4&r16.g32r16&r64>d32r16&r64d32.r8&r32.g32.r8&r32.g32r16&r64d32r16&r64<g32r16&r64g32r16&r64g32r16&r64>g32r16&r64
2280 DATA"f+16r8&r32f+32r16&r64<b32r8.>f+32r8.<b32r8.>f+16r8&r32<b32r16&r64>f+32r8.f+32r8.
2290 DATA"d16r8&r32d32r4&r32.d32r4.&r32d16r4&r64d32r8.d32r8.
2300 DATA"a+16r8&r32b4.&br4.b16.&br16.&r64>d16r32.c+16r8&r32d16r8&r32
2310 DATA"B16.r64HB16.r64H16.r64C16.r64B16.r64HS16.r64H16.r64C16.r64B16.r64H16.r64HB16.r64C16.r64B16.r64HS16.r64H16.r64C16.r64
2320 '4
2330 DATA"<g+32r16&r64a16&ar4>e32r16&r64a32r16&r64a32r16&r64<g32r16&r64>g32r16&r64<a32r16&r64>a32r16&r64<a32r16&r64>a32r16&r64<a32r16&r64>a32r16&r64<a32r16&r64
2340 DATA"g8.r8&r64f+16r8&r32e16r32.d16r8&r32c+8r16.c+16r32.<a16r8&r32b16r32.>c+16r8&r32
2350 DATA"<g+32r16&r64a16&ar4>e32r16&r64a32r16&r64a32r16&r64<g32r16&r64>g32r16&r64<a32r16&r64>a32r16&r64<a32r16&r64>a32r16&r64<a32r16&r64>a32r16&r64<a32r16&r64
2360 DATA"f+16r8&r32f+32r16&r64<a32r8.>f+32r8.<a32r8.a32r16&r64>f+32r16&r64<a32r16&r64>f+32r16&r64<a32r16&r64>f+32r16&r64<a32r16&r64
2370 DATA"c+16r8&r32c+32r4&r32.c+32r2&r64c+32r8.c+32r8.c+32r8.
2380 DATA"e16r8&r32g8&g32.r8&r32f+16r8&r32e16r32.d16r8&r32c+16.&c+r16.&r64c+16r32.<a16r8&r32b16r32.
2390 DATA"B16.r64HB16.r64H16.r64C16.r64B16.r64HS16.r64H16.r64C16.r64B16.r64H16.r64CB16.r64H16.r64CB16.r64HS16.r64CB16.r64HS16.r64
2400 '5
2410 DATA"g16.r4&r16.g32r16&r64>d32r16&r64d32.r8&r32.g32.r8&r32.g32r16&r64d32r16&r64<g32r16&r64g32r16&r64g32r16&r64>g32r16&r64
2420 DATA"<b2&b16r4.&r32.b8r16.>c+16r32.d16r8&r32e16r8&r32
2430 DATA"g16.r4&r16.g32r16&r64>d32r16&r64d32.r8&r32.g32.r8&r32.g32r16&r64d32r16&r64<g32r16&r64g32r16&r64g32r16&r64>g32r16&r64
2440 DATA">f+16r8&r32f+32r16&r64<b32r8.>f+16r8&r32<b32r8.>f+32r8.<b32r16&r64>f+32r4.&r32
2450 DATA"d16r8&r32d32r4&r32.d16r4.d32r4&r32.d32r4.&r32
2460 DATA">c+16r8&r32<b2r4.&r16.&r64b16.&br16.&r64>c+16r32.d16r8&r32
2470 DATA"CS16.r64HB16.r64H16.r64C16.r64B16.r64HS16.r64H16.r64C16.r64B16.r64H16.r64HB16.r64C16.r64B16.r64HS16.r64H16.r64C16.r64
2480 '6
2490 DATA"<g+32r16&r64a16&ar4a32r16&r64>e32r16&r64e32.r8&r32.a32.r8&r32.<a32r16&r64>g32r16&r64<a32r16&r64>f32r16&r64<g32r16&r64>e32r16&r64
2500 DATA"<a2.&a16r2&r8.&r32a+16r8&r32
2510 DATA"<g+32r16&r64a16&ar4a32r16&r64>e32r16&r64e32.r8&r32.a32.r8&r32.<a32r16&r64>g32r16&r64<a32r16&r64>f32r16&r64<g32r16&r64>e32r16&r64
2520 DATA"f+16r8&r32f+32r16&r64<a32r8.>f+16r8&r32<a32r8.>f+32r8.<a32r16&r64>f+32r8.f+32r8.
2530 DATA"c+16r8&r32c+32r4&r32.c+16r4.c+32r4&r32.c+32r8.d16r8&r32
2540 DATA"e16r8&r32<a2&a8.&a32r2.&r16
2550 DATA"B16.r64HB16.r64H16.r64C16.r64B16.r64HS16.r64H16.r64C16.r64B16.r64H16.r64HB16.r64C16.r64B16.r64HS16.r64H16.r64C16.r64
2560 '7
2570 DATA"<g16.r4&r16.g32r16&r64>d32r16&r64d32.r8&r32.g32.r8&r32.g32r16&r64d32r16&r64<g32.r8&r32.g32r16&r64>g32r16&r64
2580 DATA"b4.&b16r4&r16&r64b16r8&r32>d16r32.c+16r8&r32d16r8&r32e16r8&r32
2590 DATA"<g16.r4&r16.g32r16&r64>d32r16&r64d32.r8&r32.g32.r8&r32.g32r16&r64d32r16&r64<g32.r8&r32.g32r16&r64>g32r16&r64
2600 DATA"f+16r8&r32f+32r16&r64<b32r8.>f+32r8.<b32r8.>f+32r8.<b32r16&r64>f+32r8.f+32r8.
2610 DATA"d32r4&r32.d32r4.&r32d32r4&r32.d32r8.d32r8.c+32r8.
2620 DATA"a+16r8&r32b4.&br4.b16r8&r32>d16r32.c+16r8&r32d16r8&r32
2630 DATA"B16.r64HB16.r64H16.r64C16.r64B16.r64HS16.r64H16.r64C16.r64B16.r64H16.r64HB16.r64C16.r64B16.r64HS16.r64H16.r64C16.r64
2640 '8
2650 DATA"<a32.r8&r32.>g32.r8&r32.g32r16&r64f32r16&r64<a32.r8&r32.>e32r16&r64g32r16&r64<a32r16&r64>g32r16&r64<a32r16&r64>a32r16&r64<a32r16&r64>g32r16&r64
2660 DATA"g4&g16r8.&r32.f+4r8.g4r8.a8.r8&r64
2670 DATA"<a32.r8&r32.>g32.r8&r32.g32r16&r64f32r16&r64<a32.r8&r32.>e32r16&r64g32r16&r64<a32r16&r64>g32r16&r64<a32r16&r64>a32r16&r64<a32r16&r64>g32r16&r64
2680 DATA"f+32r16&r64<b32r16&r64>g16r8&r32g32r16&r64<a32r16&r64>f+16r8&r32f+32r16&r64<b32r16&r64>g16r8&r32g32r16&r64c+32r16&r64a16r8&r32
2690 DATA"d16r8&r32d32r8.d16r8&r32d32r8.d16r8&r32d32r8.e16r4.
2700 DATA"e16r8&r32g4&g32r4&r64f+8.&f+32r8.&r32g8.&g32r8.&r32a16.&a&
2710 DATA"B16.r64HB16.r64H16.r64CB16.r64B16.r64HS16.r64H16.r64HB16.r64CB16.r64HS16.r64CB16.r64HS16.r64CB16.r64HS16.r64HS16.r64CB16.r64
2720 '9
2730 DATA"a32r16&r64<g16&gr4g32r16&r64>d32r16&r64d32.r8&r32.g32.r8&r32.g32r16&r64d32r16&r64<g32.r8&r32.g32r16&r64>g32r16&r64
2740 DATA"@14f+16.&f+r16.&r64f+16r32.<b16r8&r32>f+16r8&r32<b16r8&r32>f+16.&f+r16.&r64<b16r32.>f+16r4.
2750 DATA"a32r16&r64<g16&gr4g32r16&r64>d32r16&r64d32.r8&r32.g32.r8&r32.g32r16&r64d32r16&r64<g32.r8&r32.g32r16&r64>g32r16&r64
2760 DATA"@14d16&dr8&r64d32.r4&r32d32.r4.&r64d16&dr4d32.r4.&r64
2770 DATA"@14v3d16&dr8&r64d32.r4&r32d32.r4.&r64d16&dr4d32.r4.&r64
2780 DATA"r16r8&r32@14v3f+16.&f+r16.&r64f+16r32.<b16r8&r32>f+16r8&r32<b16r8&r32>f+16.&f+r16.&r64<b16r32.>f+16r8&r32
2790 DATA"B16.r64HB16.r64H16.r64C16.r64B16.r64HS16.r64H16.r64C16.r64B16.r64H16.r64HB16.r64C16.r64B16.r64HS16.r64H16.r64C16.r64
2800 '10
2810 DATA"<g+32r16&r64a16&ar4a32r16&r64>e32r16&r64e32.r8&r32.a32.r8&r32.a32r16&r64<a32r16&r64>g32r16&r64<a32r16&r64>g32r16&r64<a32r16&r64
2820 DATA"f+16.&f+r16.&r64f+16r32.<a16r8&r32>f+16r8&r32<a16r8&r32>f+16.&f+r16.&r64<a16r32.>f+16r8&r32f+16r8&r32
2830 DATA"<g+32r16&r64a16&ar4a32r16&r64>e32r16&r64e32.r8&r32.a32.r8&r32.a32r16&r64<a32r16&r64>g32r16&r64<a32r16&r64>g32r16&r64<a32r16&r64
2840 DATA"c+16&c+r8&r64c+32.r4&r32c+32.r4.&r64c+16&c+r4c+32.r8&r32.c+32.r8&r32.
2850 DATA"c+16&c+r8&r64c+32.r4&r32c+32.r4.&r64c+16&c+r4c+32.r8&r32.c+32.r8&r32.
2860 DATA"r8.&r32f+16.&f+r16.&r64f+16r32.<a16r8&r32>f+16r8&r32<a16r8&r32>f+16.&f+r16.&r64<a16r32.>f+16r8&r32
2870 DATA"B16.r64HB16.r64H16.r64C16.r64B16.r64HS16.r64H16.r64C16.r64B16.r64H16.r64HB16.r64C16.r64B16.r64HS16.r64H16.r64C16.r64
2880 '11
2890 DATA"g16.r4&r16.gr16.>dr16.d32r8.g32r8.gr16.dr16.<gr16.gr16.gr16.>gr16.
2900 DATA"f+16.&f+r16.&r64f+32.r16<b32.r8&r32.>f+32.r8&r32.<b32.r8&r32.>f+16.&f+r16.&r64<b32.r16>f+32.r4.&r64
2910 DATA"g16.r4&r16.g32r16&r64>d32r16&r64d32r8.g32r8.gr16.dr16.<gr16.gr16.gr16.>gr16.
2920 DATA"d16&dr8&r64d32.r4&r32d32r4.&r32d16r4&r64d32r4.&r32
2930 DATA"d16&dr8&r64d32.r4&r32d32.r4.&r64d16r4&r64d32r4.&r32
2940 DATA"f+16r8&r32f+16.&f+r16.&r64f+32.r16<b32.r8&r32.>f+32.r8&r32.<b32.r8&r32.>f+16.&f+r16.&r64<b32.r16>f+32.r8&r32.
2950 DATA"B16.HB8H16.r64C16.r64B16.r64HS16.r64H16.r64C16.r64B16.r64H16.r64HB16.r64C16.r64B16.r64HS16.r64H16.r64C16.r64
2960 '12
2970 DATA"<g+r16.a16r4&r64ar16.>er16.er16.<a32r8.br8.&r64>c+r8.&r64dr16.er8.&r64
2980 DATA"f+16.&f+r16.&r64f+32.r16<b32.r8&r32.>f+32.r8&r32.@24c+16.r8d32.r8&r32.e32.r8&r32.f+32.r16g32.r8&r32.
2990 DATA"<g+r16.a16r4&r64ar16.>er16.er16.<a32r8.br8.&r64>c+r8.&r64dr16.er8.&r64
3000 DATA"c+16r8&r32c+32r4&r32.c+32r4.&r32c+32r8.c+32r8.c+32r16&r64c+32r8.
3010 DATA"c+16r8&r32c+32r4&r32.c+32r4.&r32c+32r8.c+32r8.c+32r16&r64c+32r8.
3020 DATA"r8.&r32f+16.&f+r16.&r64f+32.r16<b32.r8&r32.>f+32.r8&r32.@48v5c+16.&c+r16.&r64d32.r8&r32.e32.r8&r32.f+32.r16
3030 DATA"B16.r64HB16.r64HB16.C8B16.r64HS16.r64C16.r64HB16.HB8CS16.HB8CS16.HB8HS16.r64CS16.HB8
3040 '13
3050 DATA"<g16&gr4&r16.&r64gr16.>dr16.d32r8.g32r8.gr16.dr16.<g32r8.gr16.>gr16.
3060 DATA"a8.&a32r4&r16&r64a8&a32r4&r32a8&a32r8&r32.b32.r4&r32g16.&g&
3070 DATA"<g16&gr4&r16.&r64gr16.>dr16.d32r8.g32r8.gr16.dr16.<g32r8.gr16.>gr16.
3080 DATA"@24d32.r8&r32.dr16.<gr8.&r64>dr8.&r64<gr8.&r64>dr8.&r64<gr16.>dr4.&r32.
3090 DATA"@24<v11b32.r8&r32.br4&r16br4.&r32.br4&r16br4.&r32.
3100 DATA"g32.r8&r32.a8.&a32r4&r16&r64a8&a32r4&r32a8&a32r8&r32.b32.r8&r32.
3110 DATA"CS16.HB8H16.C16.r64B8HS16.H8C16.B8H16.HB8C16.r64B16.HS8H16.r64C16.r64
3120 '14
3130 DATA"<g+r16.a16r4&r64ar16.>er16.e32r8.a32r8.ar16.<ar16.>gr16.<ar16.>f+r16.<ar16.
3140 DATA"r16.&r64r8.&r32a32.r8&r32.f+32.r8&r32.g32.r8&r32.e32.r16f+32.r16d32.r16e32.r8&r32.b32.r8&r32.
3150 DATA"<g+r16.a16r4&r64ar16.>er16.e32r8.a32r8.ar16.<ar16.>gr16.<ar16.>f+r16.<ar16.
3160 DATA"c+32.r8&r32.c+r16.<f+r8.&r64>c+r8.&r64<er8.&r64>c+r8.&r64<f+r16.>c+r4.&r32.
3170 DATA"a32.r8&r32.ar4&r16ar4.&r32.ar4&r16ar4.&r32.
3180 DATA"r16.&r64g8.&g32r8.&r32a32.r8&r32.f+32.r8&r32.g32.r8&r32.e32.r16f+32.r16d32.r16e32.r8&r32.
3190 DATA"B16.r64HB16.H16.r64C16.r64B8HS16.H8C16.B8H16.r64HB16.r64C16.r64B16.r64HS16.r64H16.C8
3200 '15
3210 DATA"g16&gr4&r16.&r64gr16.>dr16.d32r8.g32r8.gr16.dr16.<g32r8.gr16.>gr16.
3220 DATA"a8.&a32r4&r16&r64a8&a32r4&r32a8&a32r8&r32.b32.r4&r32g16.&g&
3230 DATA"g16&gr4&r16.&r64gr16.>dr16.d32r8.g32r8.gr16.dr16.<g32r8.gr16.>gr16.
3240 DATA"d32.r8&r32.dr16&r64<g32r8.&r64>dr8.&r64<gr8.&r64>dr8.&r64<gr16.>dr4.&r32.
3250 DATA"b32.r8&r32.br4&r16br4.&r32.br4&r16br4.&r32.
3260 DATA"b32.r8&r32.a8.&a32r4&r16&r64a8&a32r4&r32a8&a32r8&r32.b32.r8&r32.
3270 DATA"B16.HB8H16.C16.r64B8HS16.H16.r64C16.r64B8H16.HB8C16.r64B16.HS16.r64H8C16.r64
3280 '16
3290 DATA"<g+r16.a16r4&r64ar16.>er16.e32r8.a32r8.ar16.<ar16.>gr16.<ar16.>f+r16.<ar16.
3300 DATA"r16.&r64r8.&r32a32.r8&r32.f+32.r8&r32.g32.r8&r32.e32.r16f+32.r16d32.r16e32.r8&r32.<a32.r8&r32.
3310 DATA"<g+r16.a16r4&r64ar16.>er16.e32r8.a32r8.ar16.<ar16.>gr16.<ar16.>f+r16.<ar16.
3320 DATA"c+32.r8&r32.c+r16.<f+r8.&r64>c+r8.&r64<er8.&r64>c+r8.&r64<f+r16.>c+r4.&r32.
3330 DATA"a32.r8&r32.ar4&r16ar4.&r32.ar4&r16ar4.&r32.
3340 DATA"r16.&r64g8.&g32r8.&r32a32.r8&r32.f+32.r8&r32.g32.r8&r32.e32.r16f+32.r16d32.r16e32.r8&r32.
3350 DATA"B16.HB16.r64HB16.r64C16.r64B8HS16.C8HB16.HB8B16.HS8HS16.r64HS16.HS8HS16.B8
3440 '[END]
3450 DATA"END",,,,,,,,,,,,,,,
